<svg version="1.1" xmlns="http://www.w3.org/2000/svg" xmlns:xlink="http://www.w3.org/1999/xlink" x="0px" y="0px" width="100px" height="100px" viewBox="0 0 100 100" enable-background="new 0 0 100 100" xml:space="preserve"><circle id="lp" fill="#ffc600" cx="49.978" cy="50.008" r="49.995"/><circle fill="#1c437a" cx="51" cy="52" r="41.5"/><linearGradient id="SVGID_1_" gradientUnits="userSpaceOnUse" x1="49.9995" y1="8.5" x2="49.9995" y2="91.5005"><stop  offset="0" style="stop-color:#1b6bd9"/><stop  offset="1" style="stop-color:#2257a5"/></linearGradient><circle fill="url(#SVGID_1_)" cx="50" cy="50" r="41.5"/><g><path fill="#FFFFFF" d="M71.438,46.331l-0.201-0.15v-12.07c0-0.783-0.637-1.42-1.42-1.42l-16.74-0.003c-0.776,0.077-1.323,0.688-1.32,1.421v10.268l-0.865-0.924c-0.787-0.841-1.625-1.595-2.492-2.242l-0.201-0.15V28.992c0.002-0.567-0.114-0.951-0.347-1.184c-0.199-0.2-0.49-0.297-0.89-0.297c-1.834,0-16.822,0.061-16.822,0.061l-0.102-0.003c-0.778,0.077-1.325,0.687-1.32,1.42v12.072l-0.201,0.15c-4.346,3.243-6.839,8.119-6.839,13.379c0,9.252,7.528,16.779,16.78,16.779c2.915,0,5.849-0.833,8.483-2.409l0.405-0.243l0.265,0.392c3.135,4.621,8.327,7.38,13.885,7.38c9.253,0,16.78-7.526,16.78-16.777C78.277,54.449,75.784,49.573,71.438,46.331z M46.464,52.375c-1.149,2.282-1.737,4.73-1.746,7.277l0,0.187l-0.123,0.141c-1.572,1.799-3.751,2.79-6.136,2.79c-4.511,0-8.181-3.669-8.181-8.18c0-4.51,3.67-8.179,8.181-8.179c3.027,0,6.622,2.482,8.015,5.532l0.1,0.219L46.464,52.375z M38.458,43.571c-6.077,0-11.021,4.943-11.021,11.019c0,6.076,4.944,11.02,11.021,11.02c2.18,0,4.284-0.629,6.084-1.817l0.578-0.382l0.18,0.669c0.154,0.571,0.343,1.146,0.563,1.708l0.152,0.389l-0.355,0.219c-2.299,1.416-4.722,2.135-7.202,2.135c-7.687,0-13.94-6.253-13.94-13.939c0-4.75,2.388-9.131,6.389-11.719c0.404-0.261,0.648-0.703,0.651-1.184V30.412h13.8v11.279c0.003,0.477,0.247,0.919,0.651,1.179c1.64,1.061,3.067,2.473,4.127,4.085l0.232,0.353l-0.308,0.288c-0.469,0.438-0.882,0.864-1.265,1.303l-0.424,0.487l-0.365-0.533C45.772,45.595,42.114,43.571,38.458,43.571z M61.497,73.65c-7.687,0-13.939-6.253-13.939-13.939c0-4.75,2.388-9.132,6.389-11.72c0.404-0.261,0.647-0.703,0.651-1.185V35.531h13.8V46.81c0.004,0.478,0.247,0.919,0.65,1.179c4.001,2.589,6.39,6.971,6.39,11.722C75.438,67.397,69.184,73.65,61.497,73.65z"/><path fill="#FFFFFF" d="M61.497,48.691c-6.076,0-11.02,4.944-11.02,11.02s4.943,11.02,11.02,11.02c6.077,0,11.021-4.943,11.021-11.02S67.574,48.691,61.497,48.691z M61.497,67.891c-4.511,0-8.18-3.669-8.18-8.18s3.669-8.18,8.18-8.18s8.181,3.669,8.181,8.18S66.008,67.891,61.497,67.891z"/><rect x="37" y="34.25" fill="#FFFFFF" width="2.75" height="2.75"/><rect x="60.123" y="39" fill="#FFFFFF" width="2.75" height="2.75"/></g></svg>