<svg width="512" height="512" viewBox="0 0 512 512" fill="none" xmlns="http://www.w3.org/2000/svg">
<path d="M45.1765 120.471H105.412V150.588H45.1765V120.471Z" fill="black"/>
<path d="M406.588 120.471H466.824V150.588H406.588V120.471Z" fill="black"/>
<path d="M466.824 301.177H406.588V434.203L285.268 361.412L385.66 301.177H327.124L256 343.85L184.876 301.177H126.34L226.732 361.412L105.412 434.203V301.177H45.1765V481.882H-1.52588e-05V512H150.588V481.882H105.412V469.326L256 378.973L406.588 469.326V481.882H361.412V512H512V481.882H466.824V301.177Z" fill="black"/>
<path d="M427.884 90.3529H512V6.2373L427.884 90.3529Z" fill="#FFDE32"/>
<path d="M385.292 90.3529L475.645 0H427.884L337.531 90.3529H385.292Z" fill="black"/>
<path d="M204.586 90.3529L294.939 0H247.179L156.826 90.3529H204.586Z" fill="black"/>
<path d="M294.939 90.3529L385.292 0H337.532L247.179 90.3529H294.939Z" fill="#FFDE32"/>
<path d="M114.233 90.3529L204.586 0H156.826L66.4726 90.3529H114.233Z" fill="#FFDE32"/>
<path d="M114.233 0H0V90.3529H23.8803L114.233 0Z" fill="black"/>
<path d="M279.88 180.706H232.12L141.767 271.059H189.527L279.88 180.706Z" fill="#FFDE32"/>
<path d="M370.233 180.706H322.473L232.12 271.059H279.88L370.233 180.706Z" fill="black"/>
<path d="M460.586 180.706H412.826L322.473 271.059H370.233L460.586 180.706Z" fill="#FFDE32"/>
<path d="M99.1744 271.059L189.527 180.706H141.767L51.4138 271.059H99.1744Z" fill="black"/>
<path d="M412.826 271.059H512V180.706H503.179L412.826 271.059Z" fill="black"/>
<path d="M99.1744 180.706H-1.52588e-05V271.059H8.82144L99.1744 180.706Z" fill="#FFDE32"/>
</svg>
