<svg width="24" height="54" viewBox="0 0 24 54" fill="none" xmlns="http://www.w3.org/2000/svg">
<path d="M11.686 9.014C14.1751 9.014 16.193 6.99615 16.193 4.507C16.193 2.01785 14.1751 0 11.686 0C9.19681 0 7.17896 2.01785 7.17896 4.507C7.17896 6.99615 9.19681 9.014 11.686 9.014Z" fill="#D50B0B"/>
<path d="M13.256 11.163C12.133 10.935 10.912 10.945 9.80897 11.205C2.31597 12.083 -0.117026 20.756 0.569974 27.369C0.867974 30.228 5.37497 30.258 5.07397 27.369C4.82397 24.959 4.93097 21.322 6.21197 18.737C6.21197 21.879 6.21197 25.021 6.21197 28.162C6.21197 28.273 6.22297 28.377 6.22797 28.484C6.22497 28.535 6.21297 28.578 6.21297 28.63C6.21297 36.109 6.19997 43.585 5.89097 51.058C5.75398 54.38 10.905 54.367 11.041 51.058C11.283 45.201 11.344 39.341 11.358 33.48C11.602 33.496 11.846 33.496 12.09 33.482C12.105 39.343 12.164 45.203 12.404 51.058C12.541 54.367 17.692 54.38 17.554 51.058C17.245 43.585 17.234 36.109 17.234 28.63C17.234 28.398 17.203 28.187 17.156 27.984C17.149 24.737 17.025 21.487 17.063 18.242C18.597 20.839 18.737 24.8 18.471 27.367C18.169 30.254 22.677 30.225 22.975 27.367C23.678 20.617 21.128 11.719 13.256 11.163Z" fill="#D50B0B"/>
</svg>
